HIERARCHY
ROOT Hips
{
	OFFSET 0.000000 0.000000 0.000000
	CHANNELS 6 Xposition Yposition Zposition Zrotation Yrotation Xrotation 
	JOINT LowerBack
	{
		OFFSET 0.000000 0.000000 0.000000
		CHANNELS 3 Zrotation Yrotation Xrotation
		JOINT Spine
		{
			OFFSET 0.028270 2.035590 -0.193380
			CHANNELS 3 Zrotation Yrotation Xrotation
			JOINT Spine1
			{
				OFFSET 0.056720 2.048850 -0.042750
				CHANNELS 3 Zrotation Yrotation Xrotation
				JOINT Neck
				{
					OFFSET 0.000000 0.000000 0.000000
					CHANNELS 3 Zrotation Yrotation Xrotation
					JOINT Neck1
					{
						OFFSET -0.054170 1.746240 0.172020
						CHANNELS 3 Zrotation Yrotation Xrotation
						JOINT Head
						{
							OFFSET 0.104070 1.761360 -0.123970
							CHANNELS 3 Zrotation Yrotation Xrotation
							End Site
							{
								OFFSET 0.000000 0.000000 0.000000
							}
						}
					}
				}
				JOINT LeftShoulder
				{
					OFFSET 0.000000 0.000000 0.000000
					CHANNELS 3 Zrotation Yrotation Xrotation
					JOINT LeftArm
					{
						OFFSET 3.362410 1.200890 -0.311210
						CHANNELS 3 Zrotation Yrotation Xrotation
						JOINT LeftForeArm
						{
							OFFSET 4.983000 -0.000000 -0.000000
							CHANNELS 3 Zrotation Yrotation Xrotation
							JOINT LeftHand
							{
								OFFSET 3.483560 -0.000000 -0.000000
								CHANNELS 3 Zrotation Yrotation Xrotation
								JOINT LeftFingerBase
								{
									OFFSET 0.000000 0.000000 0.000000
									CHANNELS 3 Zrotation Yrotation Xrotation
									JOINT LeftHandIndex1
									{
										OFFSET 0.715260 -0.000000 -0.000000
										CHANNELS 3 Zrotation Yrotation Xrotation
										End Site
										{
											OFFSET 0.000000 0.000000 0.000000
										}
									}
								}
								JOINT LThumb
								{
									OFFSET 0.000000 0.000000 0.000000
									CHANNELS 3 Zrotation Yrotation Xrotation
									End Site
									{
										OFFSET 0.000000 0.000000 0.000000
									}
								}
							}
						}
					}
				}
				JOINT RightShoulder
				{
					OFFSET 0.000000 0.000000 0.000000
					CHANNELS 3 Zrotation Yrotation Xrotation
					JOINT RightArm
					{
						OFFSET -3.136600 1.374050 -0.404650
						CHANNELS 3 Zrotation Yrotation Xrotation
						JOINT RightForeArm
						{
							OFFSET -5.241900 -0.000000 -0.000000
							CHANNELS 3 Zrotation Yrotation Xrotation
							JOINT RightHand
							{
								OFFSET -3.444170 -0.000000 -0.000000
								CHANNELS 3 Zrotation Yrotation Xrotation
								JOINT RightFingerBase
								{
									OFFSET 0.000000 0.000000 0.000000
									CHANNELS 3 Zrotation Yrotation Xrotation
									JOINT RightHandIndex1
									{
										OFFSET -0.622530 -0.000000 -0.000000
										CHANNELS 3 Zrotation Yrotation Xrotation
										End Site
										{
											OFFSET 0.000000 0.000000 0.000000
										}
									}
								}
								JOINT RThumb
								{
									OFFSET 0.000000 0.000000 0.000000
									CHANNELS 3 Zrotation Yrotation Xrotation
									End Site
									{
										OFFSET 0.000000 0.000000 0.000000
									}
								}
							}
						}
					}
				}
			}
		}
	}
}
}
MOTION
Frames: 7
Frame Time: 0.008333
24.387050 16.204189 4.614802 -128.280905 -86.087919 150.183121 10.943483 -5.183976 -5.633483 1.979688 -6.329758 -4.042927 -6.653228 -6.488497 0.727486 8.878399 -11.313490 -7.269739 -3.440372 -0.268784 0.136468 0.000000 0.000000 0.000000 -5.763798 -2.302483 1.849905 -60.547557 -28.559722 19.046058 -2.411791 -53.432644 -0.022951 5.146205 -1.610191 -0.088402 -0.146217 0.348445 -0.000000 0.000000 0.000000 0.000000 0.000000 0.000000 0.000000 14.242072 -12.166756 2.324658 54.220233 -15.085929 -32.219316 4.128898 3.038626 0.006799 -1.635976 3.503773 -0.055713 0.147332 -0.076470 -0.000000 0.000000 0.000000 0.000000 0.000000 0.000000 0.000000 
24.182519 16.232863 4.587599 -125.952443 -85.909378 147.901943 11.366730 -5.160952 -5.657756 2.065312 -6.347122 -4.066266 -6.652980 -6.508530 0.684237 8.848935 -11.094871 -7.245557 -3.461808 -0.270654 0.141830 0.000000 0.000000 0.000000 -5.963890 -2.345563 1.862303 -61.020518 -27.668217 18.919287 -2.434470 -52.736204 -0.023686 5.380916 -1.698567 -0.096452 -0.146576 0.342590 -0.000000 0.000000 0.000000 0.000000 0.000000 0.000000 0.000000 14.238847 -11.979879 2.325031 54.184365 -14.328656 -31.797367 4.134154 3.157670 0.006801 -1.625900 3.516870 -0.055608 0.146509 -0.076572 -0.000000 0.000000 0.000000 0.000000 0.000000 0.000000 0.000000 
23.980729 16.263290 4.558394 -124.149386 -85.724117 146.123563 11.734398 -5.128248 -5.659554 2.135056 -6.348997 -4.082562 -6.660345 -6.512290 0.646112 8.844182 -10.867495 -7.213930 -3.487468 -0.272859 0.149168 0.000000 0.000000 0.000000 -6.124010 -2.386564 1.871851 -61.503868 -26.790141 18.820021 -2.458520 -51.889087 -0.024281 5.605334 -1.758700 -0.103213 -0.146436 0.335273 -0.000000 0.000000 0.000000 0.000000 0.000000 0.000000 0.000000 14.284093 -11.785303 2.317907 54.191580 -13.525358 -31.311652 4.140571 3.276560 0.006808 -1.629130 3.535579 -0.056003 0.145679 -0.076463 -0.000000 0.000000 0.000000 0.000000 0.000000 0.000000 0.000000 
23.782213 16.295395 4.527130 -122.801404 -85.536440 144.781910 12.044475 -5.085292 -5.644752 2.188504 -6.335138 -4.092577 -6.676116 -6.499543 0.614493 8.865652 -10.631556 -7.174802 -3.518177 -0.275469 0.158587 0.000000 0.000000 0.000000 -6.245493 -2.420030 1.878902 -61.995912 -25.934454 18.745343 -2.483988 -50.892540 -0.024704 5.813689 -1.783365 -0.107883 -0.145768 0.326519 -0.000000 0.000000 0.000000 0.000000 0.000000 0.000000 0.000000 14.383659 -11.582798 2.302144 54.238017 -12.679658 -30.762558 4.148040 3.394735 0.006819 -1.651050 3.563396 -0.057097 0.144862 -0.076148 -0.000000 0.000000 0.000000 0.000000 0.000000 0.000000 0.000000 
23.587466 16.329202 4.493041 -122.092186 -85.357284 144.065342 12.270305 -5.031805 -5.615552 2.219474 -6.303406 -4.095835 -6.702401 -6.468072 0.590583 8.921405 -10.385758 -7.128622 -3.555522 -0.278596 0.170031 0.000000 0.000000 0.000000 -6.319249 -2.441151 1.883526 -62.489404 -25.104456 18.689321 -2.510521 -49.756830 -0.024932 5.998732 -1.764175 -0.109763 -0.144528 0.316311 -0.000000 0.000000 0.000000 0.000000 0.000000 0.000000 0.000000 14.554510 -11.370360 2.276488 54.320710 -11.794446 -30.161489 4.155693 3.507440 0.006848 -1.692580 3.606387 -0.058991 0.144036 -0.075661 -0.000000 0.000000 0.000000 0.000000 0.000000 0.000000 0.000000 
23.396087 16.364752 4.458334 -121.404119 -85.168186 143.362551 12.476426 -4.965651 -5.581274 2.242794 -6.257326 -4.096608 -6.735688 -6.421817 0.571253 8.991986 -10.126919 -7.072978 -3.598596 -0.282221 0.184086 0.000000 0.000000 0.000000 -6.372027 -2.454985 1.887135 -62.996730 -24.294837 18.631722 -2.537263 -48.491925 -0.025000 6.164070 -1.711160 -0.109350 -0.142701 0.305121 -0.000000 0.000000 0.000000 0.000000 0.000000 0.000000 0.000000 14.767600 -11.143471 2.244404 54.435373 -10.885003 -29.434231 4.165458 3.656661 0.006825 -1.773578 3.642417 -0.062185 0.143339 -0.074839 -0.000000 0.000000 0.000000 0.000000 0.000000 0.000000 0.000000 
23.208617 16.402165 4.421752 -121.154321 -84.983213 143.090792 12.619733 -4.888337 -5.538029 2.248738 -6.194756 -4.092404 -6.778228 -6.358456 0.559304 9.086571 -9.849328 -7.010130 -3.648244 -0.286357 0.200051 0.000000 0.000000 0.000000 -6.400816 -2.443391 1.891885 -63.492792 -23.520529 18.575017 -2.564561 -47.118639 -0.024890 6.301357 -1.608876 -0.105339 -0.140341 0.292890 -0.000000 0.000000 0.000000 0.000000 0.000000 0.000000 0.000000 15.038570 -10.895418 2.204297 54.582043 -9.932708 -28.698075 4.172865 3.783543 0.006852 -1.876952 3.710710 -0.066678 0.142572 -0.074056 -0.000000 0.000000 0.000000 0.000000 0.000000 0.000000 0.000000 
